<svg clip-rule="evenodd" fill-rule="evenodd" stroke-linecap="round" stroke-linejoin="round" stroke-miterlimit="1.5" viewBox="0 0 52 35" xmlns="http://www.w3.org/2000/svg"><g fill="none" stroke="#000"><path d="m26.239 25.017s-4.28 4.207 2.579 5.074c6.859.868 8.214-4.001 12.377-2.984 4.56 1.115 3.576 8.596 10.043 7.137"/><g stroke-width="2"><path d="m7.255 11.409c-2.326 0-4.509 1.118-5.869 3.005v8.456c1.36 1.887 3.543 3.005 5.869 3.005z"/><path d="m23.304 11.409c2.326 0 4.51 1.118 5.869 3.005v8.456c-1.359 1.887-3.543 3.005-5.869 3.005z"/><path d="m4.321 11.409s-1.472-10.283 10.891-10.283c12.362 0 10.507 10.283 10.507 10.283"/></g></g></svg>